<?xml version="1.0" encoding="UTF-8" standalone="no"?>
<!-- Created with Inkscape (http://www.inkscape.org/) -->

<svg
   width="150mm"
   height="175mm"
   viewBox="0 0 150 175"
   version="1.1"
   id="svg1"
   inkscape:export-filename="assets/livrea/livrea_a4.png"
   inkscape:export-xdpi="96"
   inkscape:export-ydpi="96"
   inkscape:version="1.4.1 (1:1.4.1+202503302257+93de688d07)"
   sodipodi:docname="boat.svg"
   xmlns:inkscape="http://www.inkscape.org/namespaces/inkscape"
   xmlns:sodipodi="http://sodipodi.sourceforge.net/DTD/sodipodi-0.dtd"
   xmlns="http://www.w3.org/2000/svg"
   xmlns:svg="http://www.w3.org/2000/svg">
  <sodipodi:namedview
     id="namedview1"
     pagecolor="#ffffff"
     bordercolor="#000000"
     borderopacity="0.25"
     inkscape:showpageshadow="2"
     inkscape:pageopacity="0.0"
     inkscape:pagecheckerboard="0"
     inkscape:deskcolor="#d1d1d1"
     inkscape:document-units="mm"
     inkscape:zoom="0.77326038"
     inkscape:cx="364.68958"
     inkscape:cy="245.71283"
     inkscape:window-width="1920"
     inkscape:window-height="1115"
     inkscape:window-x="0"
     inkscape:window-y="0"
     inkscape:window-maximized="1"
     inkscape:current-layer="layer6" />
  <defs
     id="defs1" />
  <g
     inkscape:label="Layer 1"
     inkscape:groupmode="layer"
     id="layer1" />
  <g
     inkscape:groupmode="layer"
     id="layer2"
     inkscape:label="Sail"
     inkscape:export-filename="assets/boat-sail.png"
     inkscape:export-xdpi="96"
     inkscape:export-ydpi="96"
     style="stroke-width:2.5;stroke-dasharray:none"
     transform="translate(25.940231,63.28754)">
    <rect
       style="fill:#808080;stroke:#666666;stroke-width:0;stroke-linejoin:round;stroke-dasharray:none"
       id="rect3"
       width="2.6614261"
       height="122.90949"
       x="43.905296"
       y="-48.182514" />
    <path
       style="stroke-width:0;stroke-dasharray:none;display:inline;fill:#e6e6e6;stroke:#cccccc;stroke-linejoin:round"
       d="M 43.075965,-48.225817 C 7.0874528,-14.764363 7.8343918,60.258522 7.8343918,60.258522 c 0,0 28.7758752,0.98732 30.3788032,13.85636 1.60293,12.86906 4.86277,-122.340699 4.86277,-122.340699 z"
       id="path15"
       sodipodi:nodetypes="ccsc" />
    <path
       style="baseline-shift:baseline;display:inline;overflow:visible;opacity:1;fill:#e6e6e6;stroke-width:0;stroke-linejoin:round;stroke-dasharray:none;enable-background:accumulate;stop-color:#000000;stop-opacity:1"
       d="m 47.534508,-24.229678 7.016488,92.90796 59.277214,-6.04869 c 0,0 -16.936353,-64.8420186 -66.293702,-86.85927 z"
       id="path17" />
  </g>
  <g
     inkscape:groupmode="layer"
     id="layer5"
     inkscape:label="Livrea1"
     transform="translate(25.940231,63.28754)"
     style="display:inline;fill:#ffffff;fill-opacity:1">
    <path
       style="display:inline;fill:#ffffff;fill-opacity:1;stroke-width:0;stroke-dasharray:none;baseline-shift:baseline;overflow:visible;opacity:1;stroke-linejoin:round;enable-background:accumulate;stop-color:#000000;stop-opacity:1"
       d="m 48.044067,-25.371481 a 1.250125,1.250125 0 0 0 -1.755859,1.236328 l 7.015625,92.908205 a 1.250125,1.250125 0 0 0 1.375,1.14844 l 59.275397,-6.04883 a 1.250125,1.250125 0 0 0 1.08398,-1.5586 c 0,0 -16.900073,-65.3396566 -66.994143,-87.685543 z m 0.904297,3.28125 c 45.488433,21.75718635 62.103556,79.619913 63.208986,83.634763 l -56.45508,5.75977 z"
       id="path8" />
    <path
       id="path6"
       style="display:inline;fill:#ffffff;fill-opacity:1;stroke-width:0;stroke-dasharray:none;baseline-shift:baseline;overflow:visible;opacity:1;stroke-linejoin:round;enable-background:accumulate;stop-color:#000000;stop-opacity:1"
       d="m 98.471297,26.15868 -43.95184,42.104923 0.03152,0.414445 59.277003,-6.048209 c 0,0 -4.4284,-16.956444 -15.356686,-36.471159 z" />
    <path
       id="path13"
       style="display:inline;fill:#ffffff;fill-opacity:1;stroke-width:0;stroke-dasharray:none;baseline-shift:baseline;overflow:visible;opacity:1;stroke-linejoin:round;enable-background:accumulate;stop-color:#000000;stop-opacity:1"
       d="M 49.873746 6.4477383 L 49.857726 6.536105 L 54.55098 68.678048 L 105.87653 63.441159 L 78.961376 58.596493 L 103.97845 41.742225 L 74.505318 48.166639 L 91.1689 23.021404 L 66.397285 40.23534 L 72.169543 10.627328 L 55.871313 36.010792 L 49.873746 6.4477383 z " />
    <circle
       style="display:inline;fill:#ffffff;fill-opacity:1;stroke-width:0;stroke-dasharray:none;stroke:#ffffff;stroke-linecap:round"
       id="path7"
       cx="74.485458"
       cy="30.294836"
       r="11.120392" />
  </g>
  <g
     inkscape:groupmode="layer"
     id="layer6"
     inkscape:label="Livrea4"
     style="display:inline;fill:#ffffff;fill-opacity:1;stroke-width:2.5;stroke-dasharray:none">
    <path
       id="path10"
       style="display:inline;fill:#ffffff;stroke:#cccccc;stroke-width:0;stroke-linejoin:round;stroke-dasharray:none"
       d="m 42.884721,61.247941 c -3.077077,10.16572 -5.116217,20.337145 -6.466789,29.426111 0,0 19.620028,-1.796371 30.456539,0 0,0 0.810815,-26.230121 0.908472,-29.426111 -5.777311,-5.958426 -24.898222,0 -24.898222,0 z"
       sodipodi:nodetypes="ccccc" />
    <path
       id="path12"
       style="display:inline;fill:#ffffff;fill-opacity:1;stroke:#cccccc;stroke-width:0;stroke-linejoin:round;stroke-dasharray:none"
       d="m 41.862349,-2.7124261 a 22.75403,37.467167 0 0 0 -0.566891,-0.011885 22.75403,37.467167 0 0 0 -22.754166,37.4674801 22.75403,37.467167 0 0 0 8.303369,28.940869 c 4.790461,1.702556 9.046788,4.240015 10.703222,8.014499 a 22.75403,37.467167 0 0 0 1.385962,0.309025 c 0.09265,-1.02569 0.187106,-2.297917 0.283704,-3.786849 A 24.464863,39.349079 0 0 1 27.780004,34.914218 24.464863,39.349079 0 0 1 41.802921,-0.67120699 c 0.01986,-0.68309621 0.03988,-1.36335201 0.05943,-2.04121911 z"
       transform="translate(25.940231,63.28754)" />
    <path
       style="display:inline;fill:#ffffff;fill-opacity:1;stroke:#cccccc;stroke-width:0;stroke-linejoin:round;stroke-dasharray:none"
       d="M 43.075965,-48.225817 C 7.0874528,-14.764363 7.8343918,60.258522 7.8343918,60.258522 c 0,0 28.7758752,0.98732 30.3788032,13.85636 1.60293,12.86906 4.86277,-122.340699 4.86277,-122.340699 z"
       id="path3"
       sodipodi:nodetypes="ccsc"
       transform="translate(25.940231,63.28754)" />
    <path
       style="display:inline;fill:#ffffff;fill-opacity:1;stroke:#d40000;stroke-width:0;stroke-linecap:round;stroke-linejoin:round;stroke-dasharray:none;paint-order:normal"
       d="M 40.133838,49.100802 C 38.583219,40.270472 12.175382,19.977873 10.74429,25.434087 c 0,0 3.727126,-22.4405356 7.722943,-32.2925086 12.388223,5.164462 18.711692,20.1940526 22.666707,30.8649556 -0.171957,12.267338 -1.000102,25.094268 -1.000102,25.094268 z"
       id="path5"
       sodipodi:nodetypes="ssccs"
       transform="translate(25.940231,63.28754)" />
  </g>
  <g
     inkscape:label="Body"
     inkscape:groupmode="layer"
     id="layer1-6"
     style="stroke-width:2.5;stroke-dasharray:none"
     inkscape:export-filename="assets/boat-body.png"
     inkscape:export-xdpi="96"
     inkscape:export-ydpi="96"
     transform="translate(25.940231,63.28754)">
    <path
       style="display:inline;fill:#cccccc;stroke:#666666;stroke-width:0;stroke-linejoin:round;stroke-dasharray:none"
       d="M -8.8963132,74.250002 H 85.541477 c 0,0 21.104483,1.02386 20.872123,13.0023 -0.0381,1.96342 -36.741476,0.4604 -39.64485,3.96864 -2.903374,3.50825 -35.203409,3.02435 -35.203409,3.02435 0,0 -26.1703022,0.82442 -29.0337392,-0.0605 -2.86343698,-0.88491 -6.16967,-9.61743 -11.492522,-10.2223 -5.3228518,-0.60487 0.06461,-9.71251 0.06461,-9.71251 z"
       id="path2"
       sodipodi:nodetypes="ccssczscc"
       inkscape:export-filename="boat-body.png"
       inkscape:export-xdpi="96"
       inkscape:export-ydpi="96" />
    <rect
       style="stroke-width:0;stroke-dasharray:none;fill:#808080;stroke:#666666;stroke-linejoin:round"
       id="rect2"
       width="3.617888"
       height="25.169048"
       x="-6.0568995"
       y="69.096916"
       transform="matrix(0.99604274,0.08887544,-0.11157155,0.9937564,1.2499992e-8,-4.1666669e-7)" />
  </g>
</svg>
