<?xml version="1.0" encoding="UTF-8" standalone="no"?>
<!-- Created with Inkscape (http://www.inkscape.org/) -->

<svg
   width="210mm"
   height="297mm"
   viewBox="0 0 210 297"
   version="1.1"
   id="svg1"
   inkscape:version="1.4.1 (1:1.4.1+202503302257+93de688d07)"
   sodipodi:docname="elements.svg"
   xmlns:inkscape="http://www.inkscape.org/namespaces/inkscape"
   xmlns:sodipodi="http://sodipodi.sourceforge.net/DTD/sodipodi-0.dtd"
   xmlns="http://www.w3.org/2000/svg"
   xmlns:svg="http://www.w3.org/2000/svg">
  <sodipodi:namedview
     id="namedview1"
     pagecolor="#ffffff"
     bordercolor="#000000"
     borderopacity="0.25"
     inkscape:showpageshadow="2"
     inkscape:pageopacity="0.0"
     inkscape:pagecheckerboard="0"
     inkscape:deskcolor="#d1d1d1"
     inkscape:document-units="mm"
     inkscape:zoom="0.35355339"
     inkscape:cx="343.6539"
     inkscape:cy="418.60721"
     inkscape:window-width="1920"
     inkscape:window-height="1115"
     inkscape:window-x="0"
     inkscape:window-y="0"
     inkscape:window-maximized="1"
     inkscape:current-layer="layer1" />
  <defs
     id="defs1" />
  <g
     inkscape:groupmode="layer"
     id="layer3"
     inkscape:label="BG">
    <rect
       style="fill:#5f8dd3;stroke:#ffffff;stroke-width:0.7;stroke-linecap:round;stroke-linejoin:round"
       id="rect1"
       width="230.81822"
       height="312.59659"
       x="-7.2057076"
       y="-15.578223" />
  </g>
  <g
     inkscape:groupmode="layer"
     id="layer2"
     inkscape:label="Sail"
     inkscape:export-filename="assets/boat-sail.png"
     inkscape:export-xdpi="96"
     inkscape:export-ydpi="96"
     style="stroke-width:2.5;stroke-dasharray:none">
    <rect
       style="fill:#808080;stroke:#666666;stroke-width:0;stroke-linejoin:round;stroke-dasharray:none"
       id="rect3"
       width="2.6614261"
       height="122.90949"
       x="73.673729"
       y="13.749515" />
    <path
       style="display:inline;fill:#e6e6e6;stroke:#cccccc;stroke-width:0;stroke-linejoin:round;stroke-dasharray:none"
       d="M 72.844398,13.706211 C 36.855886,47.167665 37.602825,122.19055 37.602825,122.19055 c 0,0 28.775875,0.98732 30.378803,13.85636 1.60293,12.86906 4.86277,-122.340699 4.86277,-122.340699 z"
       id="path3"
       sodipodi:nodetypes="ccsc" />
    <path
       style="baseline-shift:baseline;display:inline;overflow:visible;opacity:1;fill:#e6e6e6;stroke-width:0;stroke-linejoin:round;stroke-dasharray:none;enable-background:accumulate;stop-color:#000000;stop-opacity:1"
       d="m 77.302941,37.70235 7.016488,92.90796 59.277211,-6.04869 c 0,0 -16.93635,-64.842019 -66.293699,-86.85927 z"
       id="path6" />
  </g>
  <g
     inkscape:groupmode="layer"
     id="layer5"
     inkscape:label="Livrea">
    <path
       style="baseline-shift:baseline;display:inline;overflow:visible;opacity:1;fill:#d40000;stroke-width:0;stroke-linejoin:round;stroke-dasharray:none;enable-background:accumulate;stop-color:#000000;stop-opacity:1"
       d="m 77.8125,36.560547 a 1.250125,1.250125 0 0 0 -1.755859,1.236328 l 7.015625,92.908205 a 1.250125,1.250125 0 0 0 1.375,1.14844 l 59.275394,-6.04883 a 1.250125,1.250125 0 0 0 1.08398,-1.5586 c 0,0 -16.90007,-65.339657 -66.99414,-87.685543 z m 0.904297,3.28125 c 45.488433,21.757186 62.103553,79.619913 63.208983,83.634763 l -56.455077,5.75977 z"
       id="path8" />
    <path
       style="display:inline;fill:#ff0000;stroke:#d40000;stroke-width:0;stroke-linecap:round;stroke-linejoin:round;stroke-dasharray:none;paint-order:normal"
       d="M 69.902271,111.03283 C 68.351652,102.2025 41.943815,81.909901 40.512723,87.366115 c 0,0 3.727126,-22.440536 7.722943,-32.292509 12.388223,5.164462 18.711692,20.194053 22.666707,30.864956 -0.171957,12.267338 -1.000102,25.094268 -1.000102,25.094268 z"
       id="path5"
       sodipodi:nodetypes="ssccs" />
  </g>
  <g
     inkscape:label="Body"
     inkscape:groupmode="layer"
     id="layer1"
     style="stroke-width:2.5;stroke-dasharray:none"
     inkscape:export-filename="assets/boat-body.png"
     inkscape:export-xdpi="96"
     inkscape:export-ydpi="96">
    <path
       style="display:inline;fill:#cccccc;stroke:#666666;stroke-width:0;stroke-linejoin:round;stroke-dasharray:none"
       d="m 20.87212,136.18203 h 94.43779 c 0,0 21.10448,1.02386 20.87212,13.0023 -0.0381,1.96342 -36.741473,0.4604 -39.644847,3.96864 -2.903374,3.50825 -35.203409,3.02435 -35.203409,3.02435 0,0 -26.170302,0.82442 -29.033739,-0.0605 -2.863437,-0.88491 -6.16967,-9.61743 -11.492522,-10.2223 -5.322852,-0.60487 0.06461,-9.71251 0.06461,-9.71251 z"
       id="path2"
       sodipodi:nodetypes="ccssczscc"
       inkscape:export-filename="boat-body.png"
       inkscape:export-xdpi="96"
       inkscape:export-ydpi="96" />
    <rect
       style="fill:#808080;stroke:#666666;stroke-width:0;stroke-linejoin:round;stroke-dasharray:none"
       id="rect2"
       width="3.617888"
       height="25.169048"
       x="30.445021"
       y="128.15355"
       transform="matrix(0.99604275,0.08887544,-0.11157155,0.9937564,0,0)" />
  </g>
  <g
     inkscape:groupmode="layer"
     id="layer4"
     inkscape:label="Other">
    <path
       id="path12"
       style="baseline-shift:baseline;display:inline;overflow:visible;opacity:1;fill:#ffffff;stroke-linecap:round;stroke-linejoin:round;enable-background:accumulate;stop-color:#000000;stop-opacity:1;stroke-width:0.8;stroke-dasharray:none;stroke:#ffffff;stroke-opacity:1"
       d="m 26.582022,128.00529 c -0.80442,0 -1.484375,0.62888 -1.484375,1.41992 0,1.85187 2.96875,1.85187 2.96875,0 0,-0.79104 -0.679955,-1.41992 -1.484375,-1.41992 z m -1.433595,2.9824 c -0.780058,0.32258 -1.717507,1.01644 -2.330078,2.40039 -0.07887,0.17743 0.0018,0.38515 0.179688,0.46289 0.176906,0.0776 0.383199,-0.003 0.460937,-0.17969 0.542239,-1.22505 1.314962,-1.77159 1.957031,-2.03711 0.450304,-0.18621 0.607227,-0.15613 0.789063,-0.16406 -0.0036,0.28862 -0.0092,0.70586 -0.02148,1.41211 -0.008,0.45911 -0.0174,0.91764 -0.02734,1.25977 -0.0045,0.15313 -0.0092,0.27332 -0.01367,0.36718 -0.462221,0.08 -0.913562,0.19906 -1.220703,0.48243 -0.390652,0.3604 -0.658022,0.81894 -0.84961,1.26562 -0.383174,0.89336 -0.46875,1.77148 -0.46875,1.77149 -0.01909,0.19191 0.120657,0.36309 0.3125,0.38281 0.19263,0.0202 0.365074,-0.11981 0.384766,-0.3125 0,0 0.08177,-0.78973 0.414063,-1.56446 0.166146,-0.38736 0.39429,-0.76224 0.68164,-1.02734 0.362507,-0.34027 0.786144,-0.45164 1.219758,-0.45208 0.422856,-4.4e-4 0.903048,0.17332 1.190398,0.43843 0.287351,0.2651 0.515495,0.63998 0.681641,1.02734 0.332293,0.77473 0.416016,1.56641 0.416016,1.56641 0.01972,0.19184 0.190905,0.33159 0.382812,0.3125 0.191843,-0.0197 0.331589,-0.1909 0.3125,-0.38281 0,0 -0.08558,-0.87813 -0.46875,-1.77149 -0.191587,-0.44668 -0.458957,-0.90521 -0.849609,-1.26562 -0.307141,-0.28337 -0.758482,-0.40247 -1.220703,-0.48242 -0.0045,-0.0939 -0.0092,-0.21405 -0.01367,-0.36719 -0.0099,-0.34213 -0.01934,-0.80066 -0.02734,-1.25977 -0.01232,-0.70647 -0.01596,-1.12561 -0.01953,-1.41406 0.182274,0.008 0.337807,-0.0198 0.787109,0.16602 0.642069,0.26551 1.414793,0.81205 1.957031,2.0371 0.07774,0.17793 0.285463,0.25856 0.462891,0.17969 0.177169,-0.0785 0.256844,-0.286 0.177734,-0.46289 -0.612571,-1.38395 -1.55002,-2.07781 -2.330078,-2.40039 -0.780058,-0.32258 -2.126209,-0.31091 -2.906267,0.0117 z"
       inkscape:export-filename="sailor.png"
       inkscape:export-xdpi="96"
       inkscape:export-ydpi="96"
       transform="translate(2.6517857,-0.51324886)"
       inkscape:label="Sailor" />
    <path
       id="path12-3-1"
       style="baseline-shift:baseline;display:inline;overflow:visible;fill:#ffffff;stroke:#ffffff;stroke-width:0.8;stroke-linecap:round;stroke-linejoin:round;stroke-dasharray:none;stroke-opacity:1;enable-background:accumulate;stop-color:#000000"
       d="M 39.626522 189.03446 C 38.822102 189.03446 38.142375 189.66297 38.142375 190.45401 C 38.142375 192.30588 41.111186 192.30588 41.111186 190.45401 C 41.111186 189.66297 40.430942 189.03446 39.626522 189.03446 z M 36.131645 190.18064 C 36.086213 190.18124 36.039962 190.1907 35.995736 190.2101 C 35.817848 190.28784 35.737032 190.49569 35.815902 190.67312 C 36.428473 192.05707 37.365934 192.75091 38.145992 193.07349 C 38.92605 193.3961 40.272217 193.40795 41.052275 193.08537 C 41.832333 192.76279 42.769794 192.06895 43.382365 190.685 C 43.461475 190.50811 43.381767 190.30048 43.204598 190.22198 C 43.02717 190.14311 42.819834 190.22388 42.742094 190.40181 C 42.199856 191.62686 41.427176 192.17339 40.785107 192.4389 C 40.335805 192.62471 38.86398 192.61322 38.413676 192.42701 C 37.771607 192.16149 36.998928 191.61498 36.456689 190.38993 C 36.398386 190.25741 36.267941 190.17885 36.131645 190.18064 z M 39.646159 193.37579 C 39.440247 193.37875 39.234237 193.55804 39.228097 193.91116 C 39.220097 194.37027 39.210648 194.8289 39.200708 195.17103 C 39.196208 195.32416 40.09608 195.31229 40.09161 195.15915 C 40.08171 194.81702 40.072221 194.35839 40.064221 193.89928 C 40.058061 193.54604 39.852071 193.37284 39.646159 193.37579 z "
       inkscape:label="SailorDrowning"
       inkscape:export-filename="sailor_drowning.png"
       inkscape:export-xdpi="96"
       inkscape:export-ydpi="96" />
    <path
       id="path7"
       style="display:inline;opacity:1;fill:#aaeeff;stroke:#ffffff;stroke-width:1;stroke-linecap:round;stroke-linejoin:round;stroke-dasharray:none"
       d="m 165.56224,38.196737 c -3.46106,0.139712 -6.91967,0.583606 -10.30701,1.33742 -0.61754,0.145118 -1.25472,0.301414 -1.77852,0.676912 -0.3839,0.76938 0.87547,0.916151 1.37579,1.103977 3.2299,0.844301 10.5993,1.721533 12.07932,1.485984 1.24384,-0.363574 1.75812,-1.906534 1.31531,-3.048971 -0.43409,-1.343064 -1.4957,-1.603326 -2.68489,-1.555322 z"
       sodipodi:nodetypes="scccccs"
       inkscape:export-filename="assets/water-bullet.png"
       inkscape:export-xdpi="96"
       inkscape:export-ydpi="96"
       transform="translate(2.6517857,-0.51324886)"
       inkscape:label="Waterbullet" />
  </g>
</svg>
